<svg xmlns="http://www.w3.org/2000/svg" viewBox="-3.1127431950723974 19.000030517578125 581.2256165170979 537"> <svg xmlns="http://www.w3.org/2000/svg" xmlns:xlink="http://www.w3.org/1999/xlink" version="1.1" id="Layer_1" x="99.31739237060548" y="89.00003051757812" viewBox="42 117.53179168701172 528 556.9482421875" xml:space="preserve" height="397" width="376.365279841544" preserveAspectRatio="xMinYMin" enable-background="new 0 0 612 792" style="overflow: visible;"><polygon class="st0" points="172.96,386.49 488.57,344.26 570,349.93 443.61,433.37 570,493.56 389.63,534.25 211.05,558.15    42,564.2 218.58,489.35 42,420.58 172.96,386.49  " style="fill-rule: evenodd; clip-rule: evenodd; fill: #facf4d; fill-opacity: 1;"></polygon><path class="st0" d="M496.39,327.94l0.67,2.13l-4.06,6.92c-13.41,22.85-36.02,53.24-58.93,70.73l-0.04,0.64   c-0.62,10.77-3.99,23.38-10.52,32.75c-1.4,10.68-6.06,19.99-13.18,26.46c-2.71,8.68-7.91,17.69-14.57,24.62   c-0.24,19.55-4.21,42.77-13.27,59.99l0.45,0.23l-2.4,13.33c-13.81,76.61-61.49,101.15-117.34,108.74   c15.96-24.32,17.7-37.29,12.8-68.26c-20.4-28.93-63.13-28.93-74.46-65.39c-4.36-14.04-5.21-28.89-2.87-43.33l-7.72-5.43V471.5   l-10.19-10.48l2.57-5.24c-4.26-5.81-7.78-13.47-9.9-20.05c-5.32-16.51-4.93-33.74,0.43-50.13l-2.01-44.8   c-0.83-18.5-6.24-37.54-13.39-54.56c-3.72-8.86-8.08-17.7-13.07-25.93l-5.18-8.55l0.16-0.31l-2.4-3.76l2.65-8.15   c15.29-46.97,44.49-76.72,80.9-92.76l-31.27-1.68c59.86-45.89,403.92-52.87,350.46,126.46c-5.21,14.1-13.81,27.17-23.82,38.33   C511.97,315.38,503.37,324.07,496.39,327.94z" style="fill-rule: evenodd; clip-rule: evenodd; fill: #facf4d; fill-opacity: 1;"></path><path class="st1" d="M175.16,279.22c-4-9.29-8.83-19.32-14.27-28.3c0,0,0.05-0.19,0.13-0.51c-1.96-3.39-3.17-5.27-3.17-5.27   c28.83-88.55,112.26-106.93,195.24-88.91c-15.43-9.6-42.52-13.87-42.87-13.92c34.37-4.25,101.67-5.17,170.26,35.33   c98.23,58.01,14.82,130.83,6.77,134.64c0,0-20.16-33.89-56.65-55.02c0,0,39.5,47.32,46.77,70.56c0,0-30.43,51.8-61.73,70.58   l-20.47-5.93l20.77,14.86c0,0-1.1,18.42-10.1,26.73c0,0,0.08,29.3-25.95,24.32c0,0,7.25,4.23,13.17,3.75c0,0-4.59,14.83-15.56,21.9   c2.1,40.51-13.72,64.27-13.72,64.27c-40.17-2.9-58.44,17.73-58.44,17.73c32.21-16.13,57.37-3.49,57.37-3.49   c-11.6,64.34-76.2,87.34-76.2,87.34c13.44-20.48,6.61-50.59,6.61-50.59c-23.02-37.08-65.51-35.58-74.28-63.82   c-4.94-15.9-3.49-30.47-1.28-40.18c0.19-2.14,0.54-4.13,1.03-5.92l-9.52-6.69v-18.51l-6.41-6.6l7.99-16.24l-12.01,4.64   c0,0-18.71-23.14-7-56.31c0,0,16.75-33.91,8.99-61.3l-8.48,11.63l-0.41-2.43l-1.77,2.43C188.95,317.86,182.21,296.23,175.16,279.22   z" style="fill-rule: evenodd; clip-rule: evenodd; fill: #161616; fill-opacity: 1;"></path><path class="st2" d="M313.45,620.07c0,0,23.89-18.2,34.32-44.18c0,0-25.42-10.42-46.68,7.36l5.56,14.45c0,0,12.78-9.17,27.65-12.36   C334.29,585.34,327.76,602.01,313.45,620.07L313.45,620.07z M222.21,446.26l5.13,5.13v14.92l8,1.67c0,0-5.97,12.41-4.77,17.43   c1.19,5.01,12.41,9.79,12.41,9.79s11.13,0.72,13.05,13.9c0,0,5.27-4.46,14.11-9.12c12.59-3.7,44.34-10.85,70.97,1.45   c0,0-46.32,1.11-74.24,30.8c41.03-24.62,123.45-25.39,47.1,13.62c21.29-1.14,38.7-9.53,49.18-34.24l-25.62-1.33   c12.96-1.85,21.65-7.21,26.63-20.82c0,0-34.1-0.84-48.97-8.67c0,0,12.23-6.5,25.45-5.73c0,0-50.36-17.54-78.33,6.32   c0,0,13.25-22.35,33.32-26.03c0,0-6.22,3.69-10.89,11.86c0,0,28.42-17.57,57.55-11.84c29.13,5.73,12.42,21.25,12.42,21.25   s11.8-6.59,9.91-20.88c-1.88-14.29-62.31-33.12-110.28,3.84c0,0,9.98-21.93,32.37-34.36c0,0-23.42-12.16-43.49,1.22   c0,0,36.87-37.32,108.28-4.36c0,0-8.58-1.4-16.43,0.49c0,0,21.94,1.86,32.41,11.61c10.47,9.75,0,13,0,13s11.02,2.86,13.76-3.28   c2.73-6.14-3.41-13.79-3.41-13.79l5.73,4.1c0,0,5.6,0.27,7.37-5.73c1.77-6.01-42.76-40.12-101.28-32.47   C231.15,403.65,222.21,446.26,222.21,446.26L222.21,446.26z M212.8,311.71c2.19-20.07,29.84-41.06,46.84-47.57   c-7.04,5.42-17.54,19.91-17.54,19.91c46.31-35.09,113.17-10.89,113.17-10.89l-26.62-11.13c78.05,0,114.71,59.54,114.71,59.54   l-21.71,36.32c0,0-15.92-58.72-74-72.61c-58.09-13.89-91.27,28.99-91.27,28.99c31.75-12.65,63.26-2.87,63.26-2.87   c-49.41,7.88-65.33,40.04-65.33,40.04c31.84-4.94,60.27-17.3,60.27-17.3l-14.82,22.78c43.64-3.57,66.97,30.75,66.97,30.75   c-62.8-28.68-119.07,6.17-119.07,6.17l-33.78,34.39c-13.26-11.05-5.19-33.48-5.19-33.48l25.78-19.81l-1.16,0.44l6.84-5.38   l-26.25,5.93c2.95-7.66,5.06-16.78,6.22-22.45c8.01-5.63,28.3-20.97,28.3-20.97l0,0l0.87-0.5l-28.69,10.11l-1.15-13.14   c2.21-4.65,11.04-21.63,28.69-37c-16.39,6.43-29.5,20.36-29.5,20.36L212.8,311.71L212.8,311.71z M181.62,248.34l16.32,33.12   l8.16,24.48c0,0-0.82-56.89,70.5-71.4c0,0-15.15,8.21-23.04,19.57c0,0,40.91-24.86,104.42-7.8c0,0-44.81-37.41-101.93-22.89   l11.68-16.73c0,0-49.55,21.14-61.23,56.81l-6.72-26.26c44.81-106.8,272.7,0.34,288.64,43.16c16.55-16.04,21.5-37.86,21.5-37.86   c-33.31-59.62-123.82-81.68-123.82-81.68c63.93,31.75,87.26,60.47,87.26,60.47C386.44,167.07,218.19,132.26,181.62,248.34z" style="fill-rule: evenodd; clip-rule: evenodd; fill: #d81333; fill-opacity: 1;"></path><path class="st3" d="M302.59,170.94c-30.75,3.08-77.61,16.16-104.43,64.67c-4.81,8.7-8.49,16.49-11.25,23.47l-5.29-10.74   C199.26,192.33,247.57,171.46,302.59,170.94L302.59,170.94z M218.02,312.27c0.63-1.51,13.71-32.47,39.68-47.34   c-17.08,7.28-42.79,27.46-44.89,46.78L218.02,312.27L218.02,312.27z M242.1,284.04c31.25-23.68,71.84-20.36,94.95-15.7   C284.12,262.6,242.1,284.04,242.1,284.04L242.1,284.04z M224.8,340.62l-4.23,1.49l-1.15-13.14c1.82-3.84,8.16-16.07,20.23-28.86   c-9.33,10.4-13.25,24.41-13.25,24.41L224.8,340.62L224.8,340.62z M222.26,374.02l3.69-15.94l19.19-23.12l0,0   c-6.07,4.57-19.02,14.27-25.03,18.5c-1.16,5.66-3.27,14.78-6.22,22.45L222.26,374.02L222.26,374.02z M217.53,424.49   c-1.59-3.6-5.76-14.54-3.36-25.99l18.11-21.89l-23.6,18.14c0,0-8.06,22.43,5.19,33.48L217.53,424.49L217.53,424.49z M242,494.76   c-2.76-1.3-10.45-5.24-11.43-9.34c-1.19-5.01,4.77-17.43,4.77-17.43l-8-1.67V451.4l-5.13-5.13c0,0,4.69-22.33,29.47-37.56   c-16.77,14.56-21.25,34.62-21.25,34.62l7-4.33l-7.13,11.07l1.18,12.84l15.53-6.87l-8.66,14.26   C234.29,481.98,239.67,491.43,242,494.76z" style="fill-rule: evenodd; clip-rule: evenodd; fill: #facf4d; fill-opacity: 1;"></path><path class="st4" d="M391.79,184.95l10.38,3.32C398.74,187.12,395.28,186.01,391.79,184.95L391.79,184.95z M402.38,188.34   c26.27,8.85,50.82,20.39,70.99,32.98c0,0-23.33-28.71-87.26-60.47c1.17,0.3,2.33,0.61,3.48,0.93l0.72,0.2   c1.03,0.29,2.06,0.59,3.08,0.9l0.34,0.1c66.59,20.38,104.3,76.99,112.5,90.48c-3.2,7.71-8.78,18.17-17.8,26.91   c-10.8-29.02-118.92-87.55-201.46-89.05C340.6,175.64,400.87,188.03,402.38,188.34L402.38,188.34z M277.36,220.2   c-0.47,0.19-19.32,7.8-37.46,28.58c9.39-6.05,21.37-11.13,36.7-14.25c0,0-15.15,8.21-23.04,19.57c0,0,40.91-24.86,104.42-7.8   C357.98,246.29,323.93,217.88,277.36,220.2L277.36,220.2z M324.09,266.23c-0.12,0.02-45.34,8.85-67.72,48.02   c0,0,33.18-42.88,91.27-28.99c58.09,13.89,74,72.61,74,72.61l16.22-27.14c-10.19-15.9-48.13-67.88-109.22-68.72l26.62,11.13   C355.27,273.15,342.42,268.5,324.09,266.23L324.09,266.23z M295.36,307.84c14.34,0.47,24.28,3.55,24.28,3.55   c-49.41,7.88-65.33,40.04-65.33,40.04C264.24,327.89,284.31,314.01,295.36,307.84L295.36,307.84z M314.57,334.13l-14.82,22.78   c43.64-3.57,66.97,30.75,66.97,30.75c-39.87-25.6-88.22-19.56-88.22-19.56C289.32,353.6,314.57,334.13,314.57,334.13L314.57,334.13   z M378.37,430.85c-11.03-11.72-36-31.82-79.97-35.69l-0.13,0.01c-1.55,0.17-21.26,2.6-36.06,19.65c17.68-7.26,47.6-11.98,89.3,7.27   c0,0-8.58-1.4-16.43,0.49c0,0,21.94,1.86,32.41,11.61c10.47,9.75,0,13,0,13s11.02,2.86,13.76-3.28   C383.47,438.91,379.81,432.91,378.37,430.85L378.37,430.85z M271.52,420.67c8.89,1.28,15.21,4.56,15.21,4.56   c-22.39,12.42-32.37,34.36-32.37,34.36C256.66,443,267.19,426.76,271.52,420.67L271.52,420.67z M340.97,440.79   c13.75,3.43,22.94,9.52,23.65,14.95c1.89,14.29-9.91,20.88-9.91,20.88s16.71-15.52-12.42-21.25   c-29.13-5.73-57.55,11.84-57.55,11.84C302.8,443.05,340.45,440.82,340.97,440.79L340.97,440.79z M338.53,474.39   c-6.4-0.3-31.42,0.05-51.87,21.84c0,0,19.81-8.33,43.69-10.51c-5.75-1.21-11.15-2.81-15.16-4.92c0,0,12.23-6.5,25.45-5.73   C340.64,475.07,339.89,474.8,338.53,474.39L338.53,474.39z M342.03,510.52c-5.51,0.92-12.26,2.38-19.28,4.68   c15.34-1.15,25.68,1.65,21.55,9.16c5.17-2.07,11.94-5.85,18.85-12.74L342.03,510.52z" style="fill-rule: evenodd; clip-rule: evenodd; fill: #740a29; fill-opacity: 1;"></path><path class="st3" d="M343.99,315.08c0,0,57.03,19.29,70.71,56.81l-10.87,15.47c0,0-25.4-25.6-41.83-35.16   c0,0,22.25,7.48,35.95,17.94C397.94,370.14,387.43,342.26,343.99,315.08L343.99,315.08z M256.16,551.58c0,0,17.37,9.8,24.94,19.82   l-9.25-18.6c0,0,9.52-14.94,23.43-19.77C295.29,533.03,271.56,535.52,256.16,551.58z" style="fill-rule: evenodd; clip-rule: evenodd; fill: #facf4d; fill-opacity: 1;"></path><polygon class="st1" points="42,420.58 570,349.93 570,493.56 42,564.2  " style="fill-rule: evenodd; clip-rule: evenodd; fill: #161616; fill-opacity: 1;"></polygon></svg> <g transform="rotate(352 287.50006506347654 327.2506675720215)"><svg y="300" viewBox="-0.01531246304512024 28.8886661529541 437.9021301269531 54.50133514404297" x="68.549" height="54.50133514404297" width="437.9021301269531" style="overflow: visible;"><g fill="#d81333" fill-opacity="1" style=""><path d="M6.72 75.81L6.72 75.81Q4.63 74.22 3.29 71.83Q1.95 69.45 1.19 66.77Q0.43 64.10 0.18 61.25Q-0.07 58.39 0 55.79L0 55.79Q0.65 53.84 1.59 52.21Q2.53 50.59 3.69 49.10Q4.84 47.62 6.11 46.29Q7.37 44.95 8.60 43.58L8.60 43.58Q9.03 43.58 9.39 43.79L9.39 43.79Q9.68 43.00 10.26 42.42Q10.84 41.84 11.49 41.37Q12.14 40.90 12.79 40.43Q13.44 39.96 13.88 39.31L13.88 39.31Q15.68 38.88 17.09 38.08Q18.50 37.29 19.80 36.35Q21.10 35.41 22.47 34.62Q23.85 33.82 25.65 33.39L25.65 33.39Q26.30 32.66 27.28 32.16Q28.26 31.65 29.23 31.22Q30.21 30.79 31.11 30.28Q32.01 29.77 32.59 28.91L32.59 28.91Q33.03 29.48 33.82 29.30Q34.62 29.12 35.27 28.91L35.27 28.91Q35.70 28.83 35.99 29.05Q36.28 29.27 36.53 29.52Q36.78 29.77 36.96 29.85Q37.14 29.92 37.36 29.41L37.36 29.41Q37.94 29.48 37.69 29.92Q37.43 30.35 37.36 30.50L37.36 30.50Q38.08 30.35 38.55 30.75Q39.02 31.15 40.04 31.29L40.04 31.29Q40.40 31.65 40.25 31.87Q40.11 32.09 40.04 32.59L40.04 32.59Q42.64 33.39 43.36 35.08Q44.08 36.78 43.50 38.63Q42.93 40.47 41.37 42.02Q39.82 43.58 37.94 44.08L37.94 44.08Q35.70 44.66 33.78 45.24Q31.87 45.82 30.10 46.54Q28.33 47.26 26.77 48.24Q25.22 49.21 24.06 50.51L24.06 50.51Q22.04 51.09 20.42 52.10Q18.79 53.12 17.38 54.34Q15.97 55.57 14.67 56.91Q13.37 58.25 12.07 59.55L12.07 59.55Q12.07 60.78 11.63 61.43Q11.20 62.08 10.70 62.73L10.70 62.73Q10.84 64.10 11.31 65.08Q11.78 66.05 12.29 67.06L12.29 67.06Q18.07 68.80 24.53 69.19Q31.00 69.59 37.36 69.66L37.36 69.66Q38.01 70.53 38.84 71.29Q39.67 72.05 40.36 72.84Q41.05 73.64 41.44 74.69Q41.84 75.73 41.63 77.18L41.63 77.18Q40.40 78.41 38.95 79.53Q37.51 80.65 36.06 81.73L36.06 81.73Q35.41 81.80 34.51 81.73Q33.60 81.66 32.63 81.66Q31.65 81.66 30.68 81.77Q29.70 81.88 28.83 82.24L28.83 82.24Q24.28 82.09 19.51 81.12Q14.74 80.14 10.70 78.77L10.70 78.77Q9.90 77.83 9.03 77.00Q8.17 76.17 6.72 75.81ZM85.15 60.41L85.15 60.41Q85.08 61.28 85.29 62.08Q85.51 62.87 85.84 63.63Q86.16 64.39 86.45 65.18Q86.74 65.98 86.88 66.77L86.88 66.77Q87.03 67.79 86.88 68.98Q86.74 70.17 86.38 71.29Q86.02 72.41 85.44 73.31Q84.86 74.22 84.07 74.65L84.07 74.65Q83.05 75.95 81.61 76.67Q80.16 77.40 78.93 78.41L78.93 78.41Q78.14 78.91 77.16 79.13Q76.19 79.35 75.18 79.56L75.18 79.56Q74.38 80.00 73.30 80.47Q72.21 80.94 71.06 81.33Q69.90 81.73 68.74 81.91Q67.59 82.09 66.72 82.02L66.72 82.02Q64.55 82.82 62.49 83.07Q60.43 83.32 57.69 82.74L57.69 82.74Q55.09 83.11 52.88 82.53Q50.68 81.95 48.98 80.68Q47.28 79.42 46.02 77.65Q44.75 75.88 43.96 73.93L43.96 73.93Q43.38 69.81 44.25 66.45Q45.11 63.09 46.74 60.23Q48.37 57.38 50.46 54.96Q52.56 52.54 54.51 50.22L54.51 50.22Q54.94 50.37 55.20 50.19Q55.45 50.01 55.66 49.68Q55.88 49.36 56.13 49.07Q56.39 48.78 56.75 48.71L56.75 48.71Q57.25 47.62 58.23 47.08Q59.21 46.54 59.78 45.53L59.78 45.53Q60.43 45.38 60.87 45.09Q61.30 44.80 61.70 44.44Q62.10 44.08 62.53 43.76Q62.96 43.43 63.54 43.29L63.54 43.29L63.54 42.49Q64.84 41.91 65.46 41.16Q66.07 40.40 66.94 39.31L66.94 39.31Q67.59 39.24 67.99 39.24Q68.38 39.24 69.18 39.10L69.18 39.10Q69.76 38.08 70.23 37.58Q70.70 37.07 71.64 36.49L71.64 36.49Q72.50 36.93 73.55 37.07Q74.60 37.22 75.39 38.01L75.39 38.01Q75.47 38.73 75.83 39.13Q76.19 39.53 76.62 39.85Q77.06 40.18 77.45 40.54Q77.85 40.90 77.99 41.55L77.99 41.55Q78.28 41.63 78.39 41.48Q78.50 41.34 78.79 41.41L78.79 41.41Q79.01 42.42 79.30 42.75Q79.58 43.07 79.87 44.01L79.87 44.01Q79.51 44.73 79.33 45.49Q79.15 46.25 78.43 46.61L78.43 46.61Q78.36 47.12 78.72 47.15Q79.08 47.19 79.15 47.55L79.15 47.55Q79.22 48.20 78.93 48.49L78.93 48.49Q80.67 51.31 82.04 54.45Q83.41 57.60 85.15 60.41ZM76.12 67.28L76.12 67.28Q76.41 66.48 76.87 65.98Q77.34 65.47 77.42 64.46L77.42 64.46Q77.06 63.88 76.98 63.56Q76.91 63.23 76.91 62.51L76.91 62.51Q75.32 60.27 74.16 57.70Q73.01 55.14 71.56 52.90L71.56 52.90Q71.42 53.19 71.06 53.48Q70.70 53.77 70.26 53.33L70.26 53.33Q70.12 53.91 69.76 54.16Q69.40 54.42 68.96 54.38Q68.53 54.34 68.06 54.16Q67.59 53.98 67.23 53.69L67.23 53.69Q65.13 55.36 63.04 56.95Q60.94 58.54 59.28 60.63L59.28 60.63Q58.99 60.78 58.92 60.74Q58.84 60.70 58.48 60.85L58.48 60.85Q57.91 62.22 57.07 63.34Q56.24 64.46 55.45 65.62Q54.65 66.77 54.07 68.07Q53.50 69.38 53.42 71.11L53.42 71.11Q54.65 72.12 56.32 72.34Q57.98 72.55 59.75 72.41Q61.52 72.27 63.22 71.94Q64.91 71.62 66.36 71.62L66.36 71.62Q69.40 70.89 71.56 69.70Q73.73 68.51 76.12 67.28ZM137.35 80.79L137.35 80.79Q136.62 81.15 136.01 81.44Q135.39 81.73 134.60 81.73L134.60 81.73Q131.78 79.64 131.67 74.43Q131.56 69.23 133.88 61.21L133.88 61.21Q134.24 60.99 134.24 60.34L134.24 60.34L133.59 59.62Q133.30 59.62 133.05 59.69Q132.79 59.76 132.65 60.20L132.65 60.20Q130.77 61.57 128.53 63.05Q126.29 64.53 123.87 65.80Q121.45 67.06 118.95 67.86Q116.46 68.65 114.08 68.65L114.08 68.65Q108.01 68.65 104.97 62.51L104.97 62.51L104.39 61.43L103.81 62.37Q103.60 62.65 103.16 63.56Q102.73 64.46 102.30 65.62Q101.86 66.77 101.54 67.97Q101.21 69.16 101.28 70.03L101.28 70.03Q100.63 70.68 99.91 71.54Q99.19 72.41 98.83 73.49L98.83 73.49Q98.68 74.07 98.97 74.58L98.97 74.58Q98.83 75.23 98.32 75.59L98.32 75.59Q98.03 75.95 97.71 76.28Q97.38 76.60 97.17 76.96L97.17 76.96Q97.02 77.32 96.98 77.69Q96.95 78.05 96.88 78.41L96.88 78.41Q96.88 78.91 96.73 79.35L96.73 79.35Q95.50 81.88 94.78 82.64Q94.06 83.39 92.83 83.39L92.83 83.39Q92.25 83.39 90.95 83.18L90.95 83.18Q90.01 82.17 89.25 80.40Q88.49 78.63 88.10 76.60Q87.70 74.58 87.73 72.52Q87.77 70.46 88.42 68.94L88.42 68.94Q88.42 68.87 89.00 67.50Q89.58 66.12 90.48 63.96Q91.38 61.79 92.54 59.15Q93.70 56.51 94.85 54.02Q96.01 51.53 97.06 49.43Q98.10 47.33 98.83 46.25L98.83 46.25Q99.41 45.38 99.88 44.62Q100.35 43.87 100.78 43.14L100.78 43.14Q102.08 40.90 103.27 39.42Q104.46 37.94 106.78 37.07L106.78 37.07Q108.37 37.72 109.09 38.59L109.09 38.59L109.23 39.38Q109.52 40.11 110.10 40.11L110.10 40.11Q110.90 40.32 111.44 40.50Q111.98 40.69 112.63 40.83L112.63 40.83Q113.14 41.41 113.57 42.20L113.57 42.20Q114.15 43.07 114.69 43.90Q115.23 44.73 115.56 45.56Q115.88 46.39 115.92 47.26Q115.95 48.13 115.59 49.07L115.59 49.07L115.67 49.79Q116.03 50.44 115.81 51.60L115.81 51.60Q115.74 52.10 115.74 52.65Q115.74 53.19 115.88 53.84L115.88 53.84Q117.18 54.85 118.19 54.85L118.19 54.85Q119.35 54.85 120.33 54.31Q121.30 53.77 122.17 53.19L122.17 53.19Q122.75 52.75 123.33 52.43Q123.90 52.10 124.48 52.03L124.48 52.03Q125.78 50.80 126.83 49.86Q127.88 48.92 129.03 47.98L129.03 47.98Q131.20 46.25 133.23 44.23Q135.25 42.20 136.48 39.17L136.48 39.17Q137.20 38.73 138.00 38.73L138.00 38.73Q138.79 38.73 139.66 39.10Q140.52 39.46 141.32 39.82L141.32 39.82Q141.54 39.96 141.72 40.04Q141.90 40.11 142.04 40.18L142.04 40.18Q142.04 40.90 142.62 41.41L142.62 41.41Q142.91 41.63 142.98 41.70Q143.05 41.77 143.20 41.84L143.20 41.84Q144.28 42.42 144.57 43.00L144.57 43.00Q145.08 44.66 146.38 45.53L146.38 45.53Q146.23 46.25 146.41 46.86Q146.60 47.48 146.88 48.13L146.88 48.13Q146.96 48.35 147.03 48.56Q147.10 48.78 147.25 49.07L147.25 49.07L145.87 48.92L146.09 50.30Q146.23 51.31 145.91 52.54Q145.58 53.77 145.15 54.49L145.15 54.49Q145.22 56.37 145.26 57.42Q145.29 58.46 145.15 59.37Q145.01 60.27 144.75 61.06Q144.50 61.86 144.07 62.80L144.07 62.80Q144.35 67.42 143.02 71.22Q141.68 75.01 140.24 78.34L140.24 78.34Q140.09 78.70 139.91 79.06Q139.73 79.42 139.59 79.78L139.59 79.78Q138.94 80.00 138.43 80.25Q137.92 80.50 137.35 80.79ZM160.71 77.04L160.71 77.04Q161.07 79.20 160.45 80.43Q159.84 81.66 158.72 82.27Q157.60 82.89 156.15 82.96Q154.71 83.03 153.41 82.82L153.41 82.82Q152.69 81.80 152.11 80.29Q151.53 78.77 151.02 77.14Q150.52 75.52 150.12 73.93Q149.72 72.34 149.43 71.11L149.43 71.11Q149.80 70.24 149.90 69.12Q150.01 68.00 150.05 66.85Q150.08 65.69 150.12 64.50Q150.16 63.30 150.30 62.22L150.30 62.22Q150.81 59.19 151.78 56.44Q152.76 53.69 153.34 50.73L153.34 50.73Q153.48 50.08 153.23 49.50Q152.97 48.92 153.12 48.42L153.12 48.42Q153.19 48.13 153.55 48.02Q153.91 47.91 153.99 47.55L153.99 47.55Q154.20 46.76 154.09 46.25Q153.99 45.74 154.35 45.02L154.35 45.02Q154.71 44.44 155.25 43.32Q155.79 42.20 155.65 40.97L155.65 40.97Q156.30 40.54 156.88 39.96Q157.46 39.38 158.07 38.92Q158.68 38.45 159.44 38.08Q160.20 37.72 161.29 37.72L161.29 37.72Q161.86 38.45 162.04 39.31Q162.22 40.18 162.41 41.05Q162.59 41.91 162.95 42.67Q163.31 43.43 164.18 43.87L164.18 43.87Q164.18 44.44 164.18 45.31Q164.18 46.18 164.25 47.01Q164.32 47.84 164.57 48.53Q164.83 49.21 165.40 49.43L165.40 49.43Q164.10 52.90 162.98 56.29Q161.86 59.69 161.14 63.12Q160.42 66.56 160.24 70.03Q160.06 73.49 160.71 77.04ZM196.93 82.24L196.93 82.24Q195.78 82.31 194.08 82.17Q192.38 82.02 190.93 82.67L190.93 82.67Q187.10 82.53 183.13 81.73Q179.16 80.94 175.83 79.78L175.83 79.78Q175.11 78.99 174.39 78.30Q173.66 77.61 172.43 77.32L172.43 77.32Q170.70 75.95 169.62 73.96Q168.53 71.98 167.88 69.74Q167.23 67.50 167.01 65.15Q166.80 62.80 166.87 60.63L166.87 60.63Q167.95 57.38 169.94 55.03Q171.93 52.68 174.02 50.37L174.02 50.37Q174.96 49.94 175.43 49.47Q175.90 49.00 176.45 48.60Q176.99 48.20 177.53 47.80Q178.07 47.41 178.50 46.83L178.50 46.83Q180.02 46.47 181.14 45.78Q182.26 45.09 183.35 44.33Q184.43 43.58 185.59 42.93Q186.74 42.28 188.26 41.91L188.26 41.91Q188.84 41.26 189.63 40.87Q190.43 40.47 191.26 40.07Q192.09 39.67 192.85 39.24Q193.61 38.81 194.04 38.08L194.04 38.08Q194.40 38.66 195.05 38.48Q195.70 38.30 196.28 38.08L196.28 38.08Q196.64 38.01 196.90 38.23Q197.15 38.45 197.37 38.66Q197.58 38.88 197.76 38.92Q197.94 38.95 198.09 38.59L198.09 38.59Q198.45 38.59 198.31 38.95Q198.16 39.31 198.09 39.46L198.09 39.46Q198.67 39.38 199.06 39.71Q199.46 40.04 200.33 40.11L200.33 40.11Q200.62 40.47 200.47 40.65Q200.33 40.83 200.33 41.26L200.33 41.26Q202.50 41.91 203.08 43.32Q203.65 44.73 203.15 46.25Q202.64 47.77 201.34 49.07Q200.04 50.37 198.52 50.80L198.52 50.80Q195.05 51.74 191.98 52.86Q188.91 53.98 186.96 56.15L186.96 56.15Q185.23 56.66 183.89 57.49Q182.55 58.32 181.36 59.37Q180.17 60.41 179.12 61.53Q178.07 62.65 176.91 63.74L176.91 63.74Q176.99 64.75 176.59 65.29Q176.19 65.83 175.83 66.41L175.83 66.41Q175.98 67.50 176.34 68.33Q176.70 69.16 177.13 69.95L177.13 69.95Q181.90 71.40 187.29 71.76Q192.67 72.12 198.09 72.19L198.09 72.19Q198.59 72.92 199.28 73.53Q199.97 74.14 200.55 74.83Q201.12 75.52 201.49 76.35Q201.85 77.18 201.63 78.41L201.63 78.41Q200.62 79.49 199.39 80.40Q198.16 81.30 196.93 82.24ZM234.55 75.81L234.55 75.81Q232.46 74.22 231.12 71.83Q229.78 69.45 229.02 66.77Q228.26 64.10 228.01 61.25Q227.76 58.39 227.83 55.79L227.83 55.79Q228.48 53.84 229.42 52.21Q230.36 50.59 231.52 49.10Q232.67 47.62 233.94 46.29Q235.20 44.95 236.43 43.58L236.43 43.58Q236.86 43.58 237.22 43.79L237.22 43.79Q237.51 43.00 238.09 42.42Q238.67 41.84 239.32 41.37Q239.97 40.90 240.62 40.43Q241.27 39.96 241.71 39.31L241.71 39.31Q243.51 38.88 244.92 38.08Q246.33 37.29 247.63 36.35Q248.93 35.41 250.31 34.62Q251.68 33.82 253.48 33.39L253.48 33.39Q254.14 32.66 255.11 32.16Q256.09 31.65 257.06 31.22Q258.04 30.79 258.94 30.28Q259.84 29.77 260.42 28.91L260.42 28.91Q260.86 29.48 261.65 29.30Q262.45 29.12 263.10 28.91L263.10 28.91Q263.53 28.83 263.82 29.05Q264.11 29.27 264.36 29.52Q264.61 29.77 264.79 29.85Q264.97 29.92 265.19 29.41L265.19 29.41Q265.77 29.48 265.52 29.92Q265.26 30.35 265.19 30.50L265.19 30.50Q265.91 30.35 266.38 30.75Q266.85 31.15 267.87 31.29L267.87 31.29Q268.23 31.65 268.08 31.87Q267.94 32.09 267.87 32.59L267.87 32.59Q270.47 33.39 271.19 35.08Q271.91 36.78 271.33 38.63Q270.76 40.47 269.20 42.02Q267.65 43.58 265.77 44.08L265.77 44.08Q263.53 44.66 261.61 45.24Q259.70 45.82 257.93 46.54Q256.16 47.26 254.60 48.24Q253.05 49.21 251.89 50.51L251.89 50.51Q249.87 51.09 248.25 52.10Q246.62 53.12 245.21 54.34Q243.80 55.57 242.50 56.91Q241.20 58.25 239.90 59.55L239.90 59.55Q239.90 60.78 239.47 61.43Q239.03 62.08 238.53 62.73L238.53 62.73Q238.67 64.10 239.14 65.08Q239.61 66.05 240.12 67.06L240.12 67.06Q245.90 68.80 252.36 69.19Q258.83 69.59 265.19 69.66L265.19 69.66Q265.84 70.53 266.67 71.29Q267.50 72.05 268.19 72.84Q268.88 73.64 269.27 74.69Q269.67 75.73 269.46 77.18L269.46 77.18Q268.23 78.41 266.78 79.53Q265.34 80.65 263.89 81.73L263.89 81.73Q263.24 81.80 262.34 81.73Q261.43 81.66 260.46 81.66Q259.48 81.66 258.51 81.77Q257.53 81.88 256.66 82.24L256.66 82.24Q252.11 82.09 247.34 81.12Q242.57 80.14 238.53 78.77L238.53 78.77Q237.73 77.83 236.86 77.00Q236.00 76.17 234.55 75.81ZM307.85 75.08L307.85 75.08Q307.99 76.96 307.42 78.19Q306.84 79.42 305.83 80.29Q304.81 81.15 303.51 81.66Q302.21 82.17 300.98 82.60L300.98 82.60Q300.41 82.24 299.86 81.84Q299.32 81.44 298.60 81.23L298.60 81.23Q297.66 79.49 296.79 78.16Q295.92 76.82 296.00 75.08L296.00 75.08Q296.00 75.01 296.11 74.29Q296.21 73.57 296.39 72.70Q296.58 71.83 296.68 71.07Q296.79 70.31 296.79 70.24L296.79 70.24Q295.13 70.39 293.32 70.96Q291.52 71.54 289.82 72.34Q288.12 73.13 286.64 73.93Q285.16 74.72 284.22 75.30L284.22 75.30Q284.22 75.52 283.93 76.35Q283.64 77.18 283.21 78.08Q282.77 78.99 282.27 79.71Q281.76 80.43 281.25 80.43L281.25 80.43Q281.33 80.65 281.47 80.87Q281.62 81.08 281.47 81.44L281.47 81.44Q280.46 81.73 279.67 82.20Q278.87 82.67 278.00 83.00Q277.14 83.32 276.12 83.32Q275.11 83.32 273.74 82.60L273.74 82.60Q273.74 82.17 273.38 81.84Q273.02 81.52 272.62 81.26Q272.22 81.01 271.93 80.83Q271.64 80.65 271.64 80.50L271.64 80.50Q271.28 80.58 271.35 80.00Q271.43 79.42 271.93 79.71L271.93 79.71Q271.14 78.70 270.96 77.94Q270.78 77.18 270.13 76.02L270.13 76.02Q270.27 75.88 270.38 75.52Q270.49 75.16 270.56 74.87Q270.63 74.58 270.78 74.43Q270.92 74.29 271.14 74.51L271.14 74.51Q270.99 73.86 271.14 73.42Q271.28 72.99 271.43 72.63Q271.57 72.27 271.64 71.90Q271.72 71.54 271.43 71.11L271.43 71.11Q272.58 69.52 272.94 67.68Q273.31 65.83 273.38 64.32L273.38 64.32Q273.88 63.81 274.28 62.87Q274.68 61.93 274.90 60.96Q275.11 59.98 275.08 59.08Q275.04 58.17 274.82 57.60L274.82 57.60Q274.90 57.23 275.62 57.38L275.62 57.38Q276.05 54.99 276.23 52.00Q276.41 49.00 276.85 46.29Q277.28 43.58 278.29 41.52Q279.30 39.46 281.54 38.81L281.54 38.81Q281.98 40.32 282.66 41.48Q283.35 42.64 284.18 43.68Q285.01 44.73 285.84 45.82Q286.67 46.90 287.40 48.27L287.40 48.27Q287.33 49.65 287.11 51.45Q286.89 53.26 286.57 55.14Q286.24 57.02 285.92 58.75Q285.59 60.49 285.30 61.71L285.30 61.71Q285.37 62.08 285.70 62.15Q286.02 62.22 285.81 62.80L285.81 62.80Q287.54 62.37 289.42 62.00Q291.30 61.64 293.18 61.21Q295.06 60.78 296.83 60.23Q298.60 59.69 300.12 58.90L300.12 58.90Q300.48 56.08 301.06 53.26Q301.63 50.44 301.20 47.48L301.20 47.48Q301.56 47.19 301.78 46.76Q302.00 46.32 302.50 46.18L302.50 46.18Q302.14 44.80 302.21 43.29Q302.28 41.77 302.75 40.40Q303.22 39.02 304.13 38.05Q305.03 37.07 306.33 36.78L306.33 36.78Q307.13 37.94 307.70 39.28Q308.28 40.61 308.90 41.95Q309.51 43.29 310.20 44.48Q310.88 45.67 311.97 46.54L311.97 46.54Q312.18 48.63 312.29 50.88Q312.40 53.12 312.47 55.43L312.47 55.43Q311.90 58.17 311.21 60.74Q310.52 63.30 310.23 66.20L310.23 66.20Q309.73 66.77 309.44 67.50Q309.15 68.22 308.86 68.98Q308.57 69.74 308.21 70.42Q307.85 71.11 307.34 71.62L307.34 71.62Q307.63 72.48 307.45 73.24Q307.27 74 307.85 75.08ZM350.07 75.73L349.93 76.02Q349.49 77.25 348.66 78.52Q347.83 79.78 346.71 80.76Q345.59 81.73 344.22 82.38Q342.85 83.03 341.33 83.11L341.33 83.11Q340.39 82.89 340.06 82.64Q339.74 82.38 339.38 82.17L339.38 82.17Q339.16 82.02 338.98 81.91Q338.80 81.80 338.65 81.73L338.65 81.73L337.79 81.37L338.08 80.43Q338.22 79.85 338.00 79.53Q337.79 79.20 337.14 78.63L337.14 78.63Q336.92 78.41 336.70 78.19Q336.49 77.97 336.34 77.76L336.34 77.76L335.11 76.38L337.06 75.88Q338.87 75.37 339.49 74.58Q340.10 73.78 339.95 71.90L339.95 71.90Q338.51 71.62 337.53 71.83Q336.56 72.05 335.55 72.34L335.55 72.34Q334.25 72.70 332.91 72.95Q331.57 73.21 329.98 73.21L329.98 73.21Q329.40 73.21 328.90 73.17Q328.39 73.13 327.81 73.06L327.81 73.06L327.09 72.92Q326.95 72.12 326.80 72.01Q326.66 71.90 326.51 71.76L326.51 71.76Q326.15 71.40 325.75 70.78Q325.36 70.17 325.57 69.23L325.57 69.23Q325.21 68.58 325.14 67.93L325.14 67.93Q324.71 68.80 324.49 69.74L324.49 69.74L324.20 70.46L323.48 70.60Q323.33 70.68 323.26 70.93Q323.19 71.18 323.19 71.33L323.19 71.33L322.83 72.55Q322.68 72.70 322.54 72.81Q322.39 72.92 322.25 73.06L322.25 73.06Q322.11 73.71 321.89 74.36Q321.67 75.01 321.45 75.59L321.45 75.59Q321.09 76.53 320.84 77.43Q320.59 78.34 320.66 79.20L320.66 79.20L320.37 80.00Q320.01 80.43 319.58 80.68Q319.14 80.94 318.71 81.15L318.71 81.15Q318.56 81.30 318.31 81.41Q318.06 81.52 317.91 81.59L317.91 81.59L317.70 82.38L316.83 82.53Q316.03 82.67 315.71 82.74Q315.38 82.82 314.95 82.82L314.95 82.82L314.23 82.74Q313.43 82.09 313.00 81.70Q312.57 81.30 311.99 80.94L311.99 80.94Q311.34 80.07 311.27 79.64Q311.19 79.20 311.12 78.84L311.12 78.84Q310.98 78.41 310.94 78.12Q310.90 77.83 310.76 77.69L310.76 77.69L309.82 76.82L310.61 76.17L310.69 74.94Q312.13 71.25 313.76 67.86Q315.38 64.46 317.12 60.92L317.12 60.92Q317.70 59.76 318.24 58.61Q318.78 57.45 319.36 56.29L319.36 56.29Q319.29 56.08 319.29 55.79Q319.29 55.50 319.43 55.14L319.43 55.14Q320.23 53.91 320.73 52.93Q321.24 51.96 321.74 50.95L321.74 50.95Q322.32 49.72 322.94 48.56Q323.55 47.41 324.49 46.18L324.49 46.18L325.65 45.67Q325.86 45.60 326.15 45.49Q326.44 45.38 326.80 45.38L326.80 45.38L327.89 45.53Q329.91 44.59 331.43 42.89Q332.95 41.19 334.53 38.81L334.53 38.81L335.26 37.79L336.20 38.37Q336.56 38.59 337.21 38.77Q337.86 38.95 338.58 39.17L338.58 39.17Q339.88 39.46 341.04 39.82Q342.20 40.18 342.92 40.90L342.92 40.90Q343.35 42.06 343.42 42.64Q343.50 43.21 343.64 43.79L343.64 43.79Q343.86 45.02 344.04 46.25Q344.22 47.48 344.29 49.00L344.29 49.00Q344.65 50.22 344.91 51.42Q345.16 52.61 345.37 53.84L345.37 53.84Q345.74 55.57 346.10 57.20Q346.46 58.82 347.04 60.27L347.04 60.27Q347.61 60.27 347.76 60.34L347.76 60.34Q348.12 60.20 348.52 60.13Q348.92 60.05 349.42 59.98L349.42 59.98L350.22 59.91L350.51 60.63Q350.58 60.99 351.23 61.35L351.23 61.35Q352.17 61.43 352.60 61.75Q353.03 62.08 353.40 62.44L353.40 62.44Q353.69 62.73 353.97 62.87L353.97 62.87L355.06 63.30L354.48 64.39Q353.76 65.69 352.42 66.88Q351.08 68.07 349.42 68.87L349.42 68.87Q349.49 69.30 349.53 69.70Q349.57 70.10 349.71 70.53L349.71 70.53Q349.93 71.76 350.07 73.06Q350.22 74.36 350.07 75.73L350.07 75.73ZM329.04 63.52L329.04 63.52Q331.21 63.38 332.98 63.20Q334.75 63.02 336.92 62.58L336.92 62.58Q336.41 60.41 335.84 58.07Q335.26 55.72 334.61 53.40L334.61 53.40L334.17 54.13Q332.73 55.64 331.39 57.52Q330.05 59.40 329.11 61.06L329.11 61.06Q328.68 61.71 328.25 62.37Q327.81 63.02 327.45 63.67L327.45 63.67Q327.89 63.59 328.28 63.59Q328.68 63.59 329.04 63.52ZM394.61 60.41L394.61 60.41Q394.54 61.28 394.75 62.08Q394.97 62.87 395.29 63.63Q395.62 64.39 395.91 65.18Q396.20 65.98 396.34 66.77L396.34 66.77Q396.49 67.79 396.34 68.98Q396.20 70.17 395.84 71.29Q395.48 72.41 394.90 73.31Q394.32 74.22 393.52 74.65L393.52 74.65Q392.51 75.95 391.07 76.67Q389.62 77.40 388.39 78.41L388.39 78.41Q387.60 78.91 386.62 79.13Q385.65 79.35 384.64 79.56L384.64 79.56Q383.84 80.00 382.76 80.47Q381.67 80.94 380.52 81.33Q379.36 81.73 378.20 81.91Q377.05 82.09 376.18 82.02L376.18 82.02Q374.01 82.82 371.95 83.07Q369.89 83.32 367.15 82.74L367.15 82.74Q364.55 83.11 362.34 82.53Q360.14 81.95 358.44 80.68Q356.74 79.42 355.48 77.65Q354.21 75.88 353.42 73.93L353.42 73.93Q352.84 69.81 353.71 66.45Q354.57 63.09 356.20 60.23Q357.82 57.38 359.92 54.96Q362.02 52.54 363.97 50.22L363.97 50.22Q364.40 50.37 364.65 50.19Q364.91 50.01 365.12 49.68Q365.34 49.36 365.59 49.07Q365.85 48.78 366.21 48.71L366.21 48.71Q366.71 47.62 367.69 47.08Q368.66 46.54 369.24 45.53L369.24 45.53Q369.89 45.38 370.33 45.09Q370.76 44.80 371.16 44.44Q371.56 44.08 371.99 43.76Q372.42 43.43 373.00 43.29L373.00 43.29L373.00 42.49Q374.30 41.91 374.92 41.16Q375.53 40.40 376.40 39.31L376.40 39.31Q377.05 39.24 377.44 39.24Q377.84 39.24 378.64 39.10L378.64 39.10Q379.22 38.08 379.69 37.58Q380.15 37.07 381.09 36.49L381.09 36.49Q381.96 36.93 383.01 37.07Q384.06 37.22 384.85 38.01L384.85 38.01Q384.92 38.73 385.29 39.13Q385.65 39.53 386.08 39.85Q386.51 40.18 386.91 40.54Q387.31 40.90 387.45 41.55L387.45 41.55Q387.74 41.63 387.85 41.48Q387.96 41.34 388.25 41.41L388.25 41.41Q388.47 42.42 388.75 42.75Q389.04 43.07 389.33 44.01L389.33 44.01Q388.97 44.73 388.79 45.49Q388.61 46.25 387.89 46.61L387.89 46.61Q387.81 47.12 388.18 47.15Q388.54 47.19 388.61 47.55L388.61 47.55Q388.68 48.20 388.39 48.49L388.39 48.49Q390.13 51.31 391.50 54.45Q392.87 57.60 394.61 60.41ZM385.57 67.28L385.57 67.28Q385.86 66.48 386.33 65.98Q386.80 65.47 386.88 64.46L386.88 64.46Q386.51 63.88 386.44 63.56Q386.37 63.23 386.37 62.51L386.37 62.51Q384.78 60.27 383.62 57.70Q382.47 55.14 381.02 52.90L381.02 52.90Q380.88 53.19 380.52 53.48Q380.15 53.77 379.72 53.33L379.72 53.33Q379.58 53.91 379.22 54.16Q378.85 54.42 378.42 54.38Q377.99 54.34 377.52 54.16Q377.05 53.98 376.69 53.69L376.69 53.69Q374.59 55.36 372.49 56.95Q370.40 58.54 368.74 60.63L368.74 60.63Q368.45 60.78 368.38 60.74Q368.30 60.70 367.94 60.85L367.94 60.85Q367.36 62.22 366.53 63.34Q365.70 64.46 364.91 65.62Q364.11 66.77 363.53 68.07Q362.96 69.38 362.88 71.11L362.88 71.11Q364.11 72.12 365.77 72.34Q367.44 72.55 369.21 72.41Q370.98 72.27 372.68 71.94Q374.37 71.62 375.82 71.62L375.82 71.62Q378.85 70.89 381.02 69.70Q383.19 68.51 385.57 67.28ZM396.51 49.57L396.51 49.57Q397.01 48.06 398.13 46.97Q399.25 45.89 400.59 45.13Q401.93 44.37 403.37 43.87Q404.82 43.36 406.12 43.00L406.12 43.00Q409.01 41.77 412.30 40.65Q415.59 39.53 419.02 38.66Q422.45 37.79 426.06 37.54Q429.68 37.29 433.65 38.45L433.65 38.45Q433.87 39.17 434.30 39.82Q434.74 40.47 435.21 41.12Q435.67 41.77 436.04 42.38Q436.40 43.00 436.47 43.65L436.47 43.65Q437.19 44.30 437.63 45.06Q438.06 45.82 437.77 47.04L437.77 47.04Q437.05 47.62 436.36 48.09Q435.67 48.56 434.88 48.92L434.88 48.92Q432.21 48.27 429.46 48.49Q426.71 48.71 424.55 48.85L424.55 48.85Q423.90 48.20 422.99 48.20Q422.09 48.20 421.11 48.49Q420.14 48.78 419.16 49.07Q418.19 49.36 417.32 49.21L417.32 49.21Q416.60 49.79 415.55 49.97Q414.50 50.15 413.27 50.30L413.27 50.30Q413.20 50.66 413.42 50.77Q413.63 50.88 413.49 51.24L413.49 51.24Q413.92 51.74 414.61 51.96Q415.30 52.18 416.05 52.39Q416.81 52.61 417.39 52.93Q417.97 53.26 418.19 53.98L418.19 53.98Q419.27 53.98 420.07 54.49Q420.86 54.99 421.37 55.72Q421.87 56.44 422.13 57.27Q422.38 58.10 422.38 58.75L422.38 58.75Q422.59 59.33 422.88 59.26Q423.17 59.19 423.53 59.55L423.53 59.55Q423.75 60.49 424.62 61.46Q425.49 62.44 425.99 63.59L425.99 63.59Q426.14 65.40 426.21 66.81Q426.28 68.22 425.70 69.66L425.70 69.66Q424.62 72.34 422.70 74.43Q420.79 76.53 418.37 78.16Q415.95 79.78 413.20 80.94Q410.45 82.09 407.85 82.89L407.85 82.89Q407.56 82.82 407.27 82.89Q406.99 82.96 407.13 82.53L407.13 82.53Q406.55 83.03 405.87 83.18Q405.18 83.32 404.38 83.29Q403.59 83.25 402.76 83.18Q401.93 83.11 401.20 83.25L401.20 83.25Q400.70 82.74 400.30 82.27Q399.90 81.80 399.69 81.08L399.69 81.08Q399.33 81.08 399.36 80.72Q399.40 80.36 399.11 80.36L399.11 80.36Q399.54 79.64 399.51 79.53Q399.47 79.42 399.29 79.35Q399.11 79.28 398.96 79.17Q398.82 79.06 398.89 78.84L398.89 78.84Q399.18 78.26 399.11 77.50Q399.04 76.75 398.96 75.95Q398.89 75.16 399.07 74.43Q399.25 73.71 400.12 73.28L400.12 73.28Q402.58 73.57 404.78 73.10Q406.99 72.63 408.94 71.76Q410.89 70.89 412.66 69.88Q414.43 68.87 416.16 68.07L416.16 68.07Q416.38 67.42 416.78 66.99Q417.17 66.56 417.61 66.20Q418.04 65.83 418.40 65.40Q418.76 64.97 418.91 64.32L418.91 64.32Q418.98 63.81 418.66 63.70Q418.33 63.59 418.33 63.16L418.33 63.16L417.54 62.94Q416.16 62.15 414.43 61.61Q412.69 61.06 411.47 60.41L411.47 60.41Q410.67 60.85 409.98 60.63Q409.30 60.41 408.21 60.20L408.21 60.20Q405.76 60.05 403.48 59.69Q401.20 59.33 399.11 58.39L399.11 58.39Q398.96 58.03 398.75 57.74Q398.53 57.45 397.95 57.60L397.95 57.60Q397.52 57.02 397.09 56.48Q396.65 55.93 396.29 55.28L396.29 55.28Q396.43 54.42 396.51 53.80Q396.58 53.19 396.07 52.61L396.07 52.61Q396.36 51.67 396.51 51.09Q396.65 50.51 396.51 49.57Z" transform="translate(0, 0)"></path></g></svg></g></svg>